# xmcd
#
# Track frame offsets:
# 150
# 22907
# 46960
# 67602
# 88955
# 108582
# 133327
#
# Disc length: 2006 seconds
#
# Revision: 0
# Processed by: cddbd v1.4PL0 Copyright (c) Steve Scherf et al.
# Submitted via: MacMP3 Pro 5.0 (http://mp3.act2.co.jp/)
#
DISCID=5807d407
DTITLE=L.T.D - Love To The World
DYEAR=1900
DGENRE=
TTITLE0=Love To The World
TTITLE1=Time For Pleasure
TTITLE2=Love Ballad
TTITLE3=Get Your It Together
TTITLE4=Let The Music Keep Playing
TTITLE5=The Word
TTITLE6=Love To The World Prayer
EXTD=
EXTT0=
EXTT1=
EXTT2=
EXTT3=
EXTT4=
EXTT5=
EXTT6=
PLAYORDER=
